<svg width="27" height="31" fill="none" xmlns="http://www.w3.org/2000/svg"><g filter="url(#a)"><path fill-rule="evenodd" clip-rule="evenodd" d="M24.219 18.911c-4.831-.664-8.552-4.81-8.552-9.823a9.886 9.886 0 0 1 2.96-7.067C13.813 2.311 10 6.314 10 11.211c0 5.084 4.112 9.206 9.184 9.206a9.125 9.125 0 0 0 5.035-1.506Z" fill="url(#b)"/></g><circle opacity=".2" cx="25.583" cy="11.921" r="1.417" fill="#D8D8D8"/><path fill-rule="evenodd" clip-rule="evenodd" d="m24.167 6.25-1.666.876.319-1.855-1.348-1.313 1.862-.27L24.167 2l.832 1.687 1.863.27-1.348 1.314.318 1.855-1.665-.876Z" fill="url(#c)"/><defs><radialGradient id="b" cx="0" cy="0" r="1" gradientUnits="userSpaceOnUse" gradientTransform="matrix(0 21.5659 -16.699 0 17.525 6)"><stop stop-color="#fff"/><stop offset="1" stop-color="#DEE5EE"/></radialGradient><linearGradient id="c" x1="21.39" y1="3.567" x2="21.39" y2="9.121" gradientUnits="userSpaceOnUse"><stop stop-color="#fff"/><stop offset="1" stop-color="#CECECE"/></linearGradient><filter id="a" x="0" y=".021" width="26.219" height="30.395" filterUnits="userSpaceOnUse" color-interpolation-filters="sRGB"><feFlood flood-opacity="0" result="BackgroundImageFix"/><feColorMatrix in="SourceAlpha" values="0 0 0 0 0 0 0 0 0 0 0 0 0 0 0 0 0 0 127 0" result="hardAlpha"/><feOffset dx="-4" dy="4"/><feGaussianBlur stdDeviation="3"/><feColorMatrix values="0 0 0 0 0.184314 0 0 0 0 0.188235 0 0 0 0 0.223529 0 0 0 1 0"/><feBlend in2="BackgroundImageFix" result="effect1_dropShadow_0_3148"/><feBlend in="SourceGraphic" in2="effect1_dropShadow_0_3148" result="shape"/></filter></defs></svg>