<svg width="25" height="25" fill="none" xmlns="http://www.w3.org/2000/svg"><path fill-rule="evenodd" clip-rule="evenodd" d="M19.283 2.828a.28.28 0 0 1 .398-.035l.23.196a.28.28 0 0 1 .034.392l-.744.9a.28.28 0 0 1-.399.035l-.229-.195a.28.28 0 0 1-.034-.393l.744-.9Z" fill="url(#a)"/><path fill-rule="evenodd" clip-rule="evenodd" d="M12.13.283a.28.28 0 0 1 .283-.282l.3.002a.28.28 0 0 1 .278.279l.006 1.172a.28.28 0 0 1-.282.282l-.3-.001a.28.28 0 0 1-.279-.28L12.131.283Z" fill="url(#b)"/><path fill-rule="evenodd" clip-rule="evenodd" d="M23.582 9.79a.28.28 0 0 1 .325.228l.053.304a.28.28 0 0 1-.227.324l-1.136.203a.28.28 0 0 1-.326-.228l-.052-.304a.28.28 0 0 1 .227-.324l1.136-.203Z" fill="url(#c)"/><path fill-rule="evenodd" clip-rule="evenodd" d="M22.47 17.93a.28.28 0 0 1 .103.381l-.151.266a.28.28 0 0 1-.386.104l-1-.587a.28.28 0 0 1-.103-.38l.152-.266a.28.28 0 0 1 .385-.104l1 .587Z" fill="url(#d)"/><path fill-rule="evenodd" clip-rule="evenodd" d="M16.46 23.44a.28.28 0 0 1-.166.359l-.28.103a.28.28 0 0 1-.36-.169l-.397-1.107a.28.28 0 0 1 .166-.358l.28-.103a.28.28 0 0 1 .36.169l.398 1.107Z" fill="url(#e)"/><path fill-rule="evenodd" clip-rule="evenodd" d="M8.369 23.733a.28.28 0 0 1-.362.169l-.279-.103a.28.28 0 0 1-.167-.358l.397-1.107a.28.28 0 0 1 .361-.169l.28.104a.28.28 0 0 1 .166.357l-.396 1.107Z" fill="url(#f)"/><path fill-rule="evenodd" clip-rule="evenodd" d="M1.986 18.68a.28.28 0 0 1-.386-.103l-.151-.266a.28.28 0 0 1 .102-.38l1-.587a.28.28 0 0 1 .386.104l.151.266a.28.28 0 0 1-.102.38l-1 .587Z" fill="url(#g)"/><path fill-rule="evenodd" clip-rule="evenodd" d="M.289 10.646a.28.28 0 0 1-.227-.324l.052-.304A.28.28 0 0 1 .44 9.79l1.136.203a.28.28 0 0 1 .227.324l-.053.304a.28.28 0 0 1-.325.228l-1.136-.203Z" fill="url(#h)"/><path fill-rule="evenodd" clip-rule="evenodd" d="M4.077 3.38a.28.28 0 0 1 .034-.391l.23-.196a.28.28 0 0 1 .398.035l.744.9a.28.28 0 0 1-.034.393l-.23.195a.28.28 0 0 1-.398-.035l-.744-.9Z" fill="url(#i)"/><ellipse cx="12.011" cy="11.949" rx="8.014" ry="8.058" fill="url(#j)"/><defs><linearGradient id="a" x1="19.543" y1="2.766" x2="18.926" y2="3.501" gradientUnits="userSpaceOnUse"><stop stop-color="#FFC100"/><stop offset="1" stop-color="#FF8E00"/></linearGradient><linearGradient id="b" x1="12.194" y1=".07" x2="12.194" y2="1.031" gradientUnits="userSpaceOnUse"><stop stop-color="#FFC100"/><stop offset="1" stop-color="#FF8E00"/></linearGradient><linearGradient id="c" x1="23.819" y1="9.91" x2="22.883" y2="10.075" gradientUnits="userSpaceOnUse"><stop stop-color="#FFC100"/><stop offset="1" stop-color="#FF8E00"/></linearGradient><linearGradient id="d" x1="22.579" y1="18.17" x2="21.752" y2="17.692" gradientUnits="userSpaceOnUse"><stop stop-color="#FFC100"/><stop offset="1" stop-color="#FF8E00"/></linearGradient><linearGradient id="e" x1="16.392" y1="23.691" x2="16.063" y2="22.786" gradientUnits="userSpaceOnUse"><stop stop-color="#FFC100"/><stop offset="1" stop-color="#FF8E00"/></linearGradient><linearGradient id="f" x1="8.15" y1="23.88" x2="8.479" y2="22.975" gradientUnits="userSpaceOnUse"><stop stop-color="#FFC100"/><stop offset="1" stop-color="#FF8E00"/></linearGradient><linearGradient id="g" x1="1.72" y1="18.649" x2="2.547" y2="18.171" gradientUnits="userSpaceOnUse"><stop stop-color="#FFC100"/><stop offset="1" stop-color="#FF8E00"/></linearGradient><linearGradient id="h" x1=".107" y1="10.455" x2="1.042" y2="10.62" gradientUnits="userSpaceOnUse"><stop stop-color="#FFC100"/><stop offset="1" stop-color="#FF8E00"/></linearGradient><linearGradient id="i" x1="4.055" y1="3.121" x2="4.672" y2="3.857" gradientUnits="userSpaceOnUse"><stop stop-color="#FFC100"/><stop offset="1" stop-color="#FF8E00"/></linearGradient><linearGradient id="j" x1="7.578" y1="4.54" x2="7.578" y2="13.455" gradientUnits="userSpaceOnUse"><stop stop-color="#FFC100"/><stop offset="1" stop-color="#FF8E00"/></linearGradient></defs></svg>